<svg id="visual" viewBox="0 0 960 540" width="960" height="540" xmlns="http://www.w3.org/2000/svg" xmlns:xlink="http://www.w3.org/1999/xlink" version="1.1"><rect x="0" y="0" width="960" height="540" fill="#8ba4b7"></rect><path d="M0 183L22.8 186.5C45.7 190 91.3 197 137 195.8C182.7 194.7 228.3 185.3 274 173.8C319.7 162.3 365.3 148.7 411.2 156.2C457 163.7 503 192.3 548.8 193.3C594.7 194.3 640.3 167.7 686 154.3C731.7 141 777.3 141 823 151.2C868.7 161.3 914.3 181.7 937.2 191.8L960 202L960 0L937.2 0C914.3 0 868.7 0 823 0C777.3 0 731.7 0 686 0C640.3 0 594.7 0 548.8 0C503 0 457 0 411.2 0C365.3 0 319.7 0 274 0C228.3 0 182.7 0 137 0C91.3 0 45.7 0 22.8 0L0 0Z" fill="#ffffff"></path><path d="M0 171L22.8 173C45.7 175 91.3 179 137 180.7C182.7 182.3 228.3 181.7 274 176.8C319.7 172 365.3 163 411.2 153.8C457 144.7 503 135.3 548.8 129.3C594.7 123.3 640.3 120.7 686 122.3C731.7 124 777.3 130 823 137.3C868.7 144.7 914.3 153.3 937.2 157.7L960 162L960 0L937.2 0C914.3 0 868.7 0 823 0C777.3 0 731.7 0 686 0C640.3 0 594.7 0 548.8 0C503 0 457 0 411.2 0C365.3 0 319.7 0 274 0C228.3 0 182.7 0 137 0C91.3 0 45.7 0 22.8 0L0 0Z" fill="#d0dae5"></path><path d="M0 127L22.8 130C45.7 133 91.3 139 137 132.2C182.7 125.3 228.3 105.7 274 104C319.7 102.3 365.3 118.7 411.2 118.8C457 119 503 103 548.8 94C594.7 85 640.3 83 686 91C731.7 99 777.3 117 823 127.5C868.7 138 914.3 141 937.2 142.5L960 144L960 0L937.2 0C914.3 0 868.7 0 823 0C777.3 0 731.7 0 686 0C640.3 0 594.7 0 548.8 0C503 0 457 0 411.2 0C365.3 0 319.7 0 274 0C228.3 0 182.7 0 137 0C91.3 0 45.7 0 22.8 0L0 0Z" fill="#a2b6cc"></path><path d="M0 58L22.8 62.2C45.7 66.3 91.3 74.7 137 74.7C182.7 74.7 228.3 66.3 274 62C319.7 57.7 365.3 57.3 411.2 60.5C457 63.7 503 70.3 548.8 75.7C594.7 81 640.3 85 686 86.5C731.7 88 777.3 87 823 88.7C868.7 90.3 914.3 94.7 937.2 96.8L960 99L960 0L937.2 0C914.3 0 868.7 0 823 0C777.3 0 731.7 0 686 0C640.3 0 594.7 0 548.8 0C503 0 457 0 411.2 0C365.3 0 319.7 0 274 0C228.3 0 182.7 0 137 0C91.3 0 45.7 0 22.8 0L0 0Z" fill="#7393b3"></path><path d="M0 65L22.8 65.2C45.7 65.3 91.3 65.7 137 62.7C182.7 59.7 228.3 53.3 274 51C319.7 48.7 365.3 50.3 411.2 48.7C457 47 503 42 548.8 38.5C594.7 35 640.3 33 686 37.5C731.7 42 777.3 53 823 54.2C868.7 55.3 914.3 46.7 937.2 42.3L960 38L960 0L937.2 0C914.3 0 868.7 0 823 0C777.3 0 731.7 0 686 0C640.3 0 594.7 0 548.8 0C503 0 457 0 411.2 0C365.3 0 319.7 0 274 0C228.3 0 182.7 0 137 0C91.3 0 45.7 0 22.8 0L0 0Z" fill="#41729a"></path></svg>