<svg id="visual" viewBox="0 0 960 540" width="960" height="540" xmlns="http://www.w3.org/2000/svg" xmlns:xlink="http://www.w3.org/1999/xlink" version="1.1"><rect x="0" y="0" width="960" height="540" fill="#8ba4b7"></rect><path d="M0 355L22.8 351.5C45.7 348 91.3 341 137 342.2C182.7 343.3 228.3 352.7 274 364.2C319.7 375.7 365.3 389.3 411.2 381.8C457 374.3 503 345.7 548.8 344.7C594.7 343.7 640.3 370.3 686 383.7C731.7 397 777.3 397 823 386.8C868.7 376.7 914.3 356.3 937.2 346.2L960 336L960 541L937.2 541C914.3 541 868.7 541 823 541C777.3 541 731.7 541 686 541C640.3 541 594.7 541 548.8 541C503 541 457 541 411.2 541C365.3 541 319.7 541 274 541C228.3 541 182.7 541 137 541C91.3 541 45.7 541 22.8 541L0 541Z" fill="#ffffff"></path><path d="M0 367L22.8 365C45.7 363 91.3 359 137 357.3C182.7 355.7 228.3 356.3 274 361.2C319.7 366 365.3 375 411.2 384.2C457 393.3 503 402.7 548.8 408.7C594.7 414.7 640.3 417.3 686 415.7C731.7 414 777.3 408 823 400.7C868.7 393.3 914.3 384.7 937.2 380.3L960 376L960 541L937.2 541C914.3 541 868.7 541 823 541C777.3 541 731.7 541 686 541C640.3 541 594.7 541 548.8 541C503 541 457 541 411.2 541C365.3 541 319.7 541 274 541C228.3 541 182.7 541 137 541C91.3 541 45.7 541 22.8 541L0 541Z" fill="#d0dae5"></path><path d="M0 411L22.8 408C45.7 405 91.3 399 137 405.8C182.7 412.7 228.3 432.3 274 434C319.7 435.7 365.3 419.3 411.2 419.2C457 419 503 435 548.8 444C594.7 453 640.3 455 686 447C731.7 439 777.3 421 823 410.5C868.7 400 914.3 397 937.2 395.5L960 394L960 541L937.2 541C914.3 541 868.7 541 823 541C777.3 541 731.7 541 686 541C640.3 541 594.7 541 548.8 541C503 541 457 541 411.2 541C365.3 541 319.7 541 274 541C228.3 541 182.7 541 137 541C91.3 541 45.7 541 22.8 541L0 541Z" fill="#a2b6cc"></path><path d="M0 480L22.8 475.8C45.7 471.7 91.3 463.3 137 463.3C182.7 463.3 228.3 471.7 274 476C319.7 480.3 365.3 480.7 411.2 477.5C457 474.3 503 467.7 548.8 462.3C594.7 457 640.3 453 686 451.5C731.7 450 777.3 451 823 449.3C868.7 447.7 914.3 443.3 937.2 441.2L960 439L960 541L937.2 541C914.3 541 868.7 541 823 541C777.3 541 731.7 541 686 541C640.3 541 594.7 541 548.8 541C503 541 457 541 411.2 541C365.3 541 319.7 541 274 541C228.3 541 182.7 541 137 541C91.3 541 45.7 541 22.8 541L0 541Z" fill="#7393b3"></path><path d="M0 473L22.8 472.8C45.7 472.7 91.3 472.3 137 475.3C182.7 478.3 228.3 484.7 274 487C319.7 489.3 365.3 487.7 411.2 489.3C457 491 503 496 548.8 499.5C594.7 503 640.3 505 686 500.5C731.7 496 777.3 485 823 483.8C868.7 482.7 914.3 491.3 937.2 495.7L960 500L960 541L937.2 541C914.3 541 868.7 541 823 541C777.3 541 731.7 541 686 541C640.3 541 594.7 541 548.8 541C503 541 457 541 411.2 541C365.3 541 319.7 541 274 541C228.3 541 182.7 541 137 541C91.3 541 45.7 541 22.8 541L0 541Z" fill="#41729a"></path></svg>